<svg class="main-svg" xmlns="http://www.w3.org/2000/svg" xmlns:xlink="http://www.w3.org/1999/xlink" width="1200" height="600" style="" viewBox="0 0 1200 600"><rect x="0" y="0" width="1200" height="600" style="fill: rgb(255, 255, 255); fill-opacity: 1;"/><defs id="defs-d4edaa"><g class="clips"><clipPath id="clipd4edaaxyplot" class="plotclip"><rect width="1152" height="519"/></clipPath><clipPath class="axesclip" id="clipd4edaax"><rect x="48" y="0" width="1152" height="600"/></clipPath><clipPath class="axesclip" id="clipd4edaay"><rect x="0" y="0" width="1200" height="519"/></clipPath><clipPath class="axesclip" id="clipd4edaaxy"><rect x="48" y="0" width="1152" height="519"/></clipPath></g><g class="gradients"/><g class="patterns"/></defs><g class="bglayer"/><g class="layer-below"><g class="imagelayer"/><g class="shapelayer"/></g><g class="cartesianlayer"><g class="subplot xy"><g class="layer-subplot"><g class="shapelayer"/><g class="imagelayer"/></g><g class="minor-gridlayer"><g class="x"/><g class="y"/></g><g class="gridlayer"><g class="x"><path class="xgrid crisp" transform="translate(298.40999999999997,0)" d="M0,0v519" style="stroke: rgb(238, 238, 238); stroke-opacity: 1; stroke-width: 1px;"/><path class="xgrid crisp" transform="translate(508.47,0)" d="M0,0v519" style="stroke: rgb(238, 238, 238); stroke-opacity: 1; stroke-width: 1px;"/><path class="xgrid crisp" transform="translate(718.53,0)" d="M0,0v519" style="stroke: rgb(238, 238, 238); stroke-opacity: 1; stroke-width: 1px;"/><path class="xgrid crisp" transform="translate(928.59,0)" d="M0,0v519" style="stroke: rgb(238, 238, 238); stroke-opacity: 1; stroke-width: 1px;"/><path class="xgrid crisp" transform="translate(1138.65,0)" d="M0,0v519" style="stroke: rgb(238, 238, 238); stroke-opacity: 1; stroke-width: 1px;"/></g><g class="y"><path class="ygrid crisp" transform="translate(0,483.86)" d="M48,0h1152" style="stroke: rgb(238, 238, 238); stroke-opacity: 1; stroke-width: 1px;"/><path class="ygrid crisp" transform="translate(0,408)" d="M48,0h1152" style="stroke: rgb(238, 238, 238); stroke-opacity: 1; stroke-width: 1px;"/><path class="ygrid crisp" transform="translate(0,332.14)" d="M48,0h1152" style="stroke: rgb(238, 238, 238); stroke-opacity: 1; stroke-width: 1px;"/><path class="ygrid crisp" transform="translate(0,256.28)" d="M48,0h1152" style="stroke: rgb(238, 238, 238); stroke-opacity: 1; stroke-width: 1px;"/><path class="ygrid crisp" transform="translate(0,180.41)" d="M48,0h1152" style="stroke: rgb(238, 238, 238); stroke-opacity: 1; stroke-width: 1px;"/><path class="ygrid crisp" transform="translate(0,104.55)" d="M48,0h1152" style="stroke: rgb(238, 238, 238); stroke-opacity: 1; stroke-width: 1px;"/><path class="ygrid crisp" transform="translate(0,28.69)" d="M48,0h1152" style="stroke: rgb(238, 238, 238); stroke-opacity: 1; stroke-width: 1px;"/></g></g><g class="zerolinelayer"><path class="xzl zl crisp" transform="translate(88.34,0)" d="M0,0v519" style="stroke: rgb(68, 68, 68); stroke-opacity: 1; stroke-width: 1px;"/></g><g class="layer-between"><g class="shapelayer"/><g class="imagelayer"/></g><path class="xlines-below"/><path class="ylines-below"/><g class="overlines-below"/><g class="xaxislayer-below"/><g class="yaxislayer-below"/><g class="overaxes-below"/><g class="overplot"><g class="xy" transform="translate(48,0)" clip-path="url(#clipd4edaaxyplot)"><g class="scatterlayer mlayer"><g class="trace scatter trace4b4195" style="stroke-miterlimit: 2; opacity: 1;"><g class="fills"/><g class="errorbars"/><g class="lines"><path class="js-line" d="M61.35,489.3L82.36,362.1L103.36,295.72L124.37,250.46L145.37,218.98L166.38,195.21L187.39,174.09L229.4,147.79L250.41,137.42L271.41,126.05L292.42,117.83L334.43,101.14L355.44,95.32L376.44,88.62L397.45,83.31L460.47,70.41L481.47,66.37L523.48,60.17L544.49,58.15L565.5,56L586.5,53.09L649.52,44.49L670.53,42.98L712.54,39.56L733.55,36.91L880.59,31.85L901.59,31.72L943.61,31.09L964.61,30.59L1090.65,29.7" style="vector-effect: none; fill: none; stroke: rgb(34, 114, 180); stroke-opacity: 1; stroke-width: 2px; opacity: 1;"/></g><g class="points"><path class="point" transform="translate(61.35,489.3)" d="M3,0A3,3 0 1,1 0,-3A3,3 0 0,1 3,0Z" style="opacity: 1; stroke-width: 0px; fill: rgb(34, 114, 180); fill-opacity: 1;"/><path class="point" transform="translate(82.36,362.1)" d="M3,0A3,3 0 1,1 0,-3A3,3 0 0,1 3,0Z" style="opacity: 1; stroke-width: 0px; fill: rgb(34, 114, 180); fill-opacity: 1;"/><path class="point" transform="translate(103.36,295.72)" d="M3,0A3,3 0 1,1 0,-3A3,3 0 0,1 3,0Z" style="opacity: 1; stroke-width: 0px; fill: rgb(34, 114, 180); fill-opacity: 1;"/><path class="point" transform="translate(124.37,250.46)" d="M3,0A3,3 0 1,1 0,-3A3,3 0 0,1 3,0Z" style="opacity: 1; stroke-width: 0px; fill: rgb(34, 114, 180); fill-opacity: 1;"/><path class="point" transform="translate(145.37,218.98)" d="M3,0A3,3 0 1,1 0,-3A3,3 0 0,1 3,0Z" style="opacity: 1; stroke-width: 0px; fill: rgb(34, 114, 180); fill-opacity: 1;"/><path class="point" transform="translate(166.38,195.21)" d="M3,0A3,3 0 1,1 0,-3A3,3 0 0,1 3,0Z" style="opacity: 1; stroke-width: 0px; fill: rgb(34, 114, 180); fill-opacity: 1;"/><path class="point" transform="translate(187.39,174.09)" d="M3,0A3,3 0 1,1 0,-3A3,3 0 0,1 3,0Z" style="opacity: 1; stroke-width: 0px; fill: rgb(34, 114, 180); fill-opacity: 1;"/><path class="point" transform="translate(208.39,160.69)" d="M3,0A3,3 0 1,1 0,-3A3,3 0 0,1 3,0Z" style="opacity: 1; stroke-width: 0px; fill: rgb(34, 114, 180); fill-opacity: 1;"/><path class="point" transform="translate(229.4,147.79)" d="M3,0A3,3 0 1,1 0,-3A3,3 0 0,1 3,0Z" style="opacity: 1; stroke-width: 0px; fill: rgb(34, 114, 180); fill-opacity: 1;"/><path class="point" transform="translate(250.41,137.42)" d="M3,0A3,3 0 1,1 0,-3A3,3 0 0,1 3,0Z" style="opacity: 1; stroke-width: 0px; fill: rgb(34, 114, 180); fill-opacity: 1;"/><path class="point" transform="translate(271.41,126.05)" d="M3,0A3,3 0 1,1 0,-3A3,3 0 0,1 3,0Z" style="opacity: 1; stroke-width: 0px; fill: rgb(34, 114, 180); fill-opacity: 1;"/><path class="point" transform="translate(292.42,117.83)" d="M3,0A3,3 0 1,1 0,-3A3,3 0 0,1 3,0Z" style="opacity: 1; stroke-width: 0px; fill: rgb(34, 114, 180); fill-opacity: 1;"/><path class="point" transform="translate(313.42,109.61)" d="M3,0A3,3 0 1,1 0,-3A3,3 0 0,1 3,0Z" style="opacity: 1; stroke-width: 0px; fill: rgb(34, 114, 180); fill-opacity: 1;"/><path class="point" transform="translate(334.43,101.14)" d="M3,0A3,3 0 1,1 0,-3A3,3 0 0,1 3,0Z" style="opacity: 1; stroke-width: 0px; fill: rgb(34, 114, 180); fill-opacity: 1;"/><path class="point" transform="translate(355.44,95.32)" d="M3,0A3,3 0 1,1 0,-3A3,3 0 0,1 3,0Z" style="opacity: 1; stroke-width: 0px; fill: rgb(34, 114, 180); fill-opacity: 1;"/><path class="point" transform="translate(376.44,88.62)" d="M3,0A3,3 0 1,1 0,-3A3,3 0 0,1 3,0Z" style="opacity: 1; stroke-width: 0px; fill: rgb(34, 114, 180); fill-opacity: 1;"/><path class="point" transform="translate(397.45,83.31)" d="M3,0A3,3 0 1,1 0,-3A3,3 0 0,1 3,0Z" style="opacity: 1; stroke-width: 0px; fill: rgb(34, 114, 180); fill-opacity: 1;"/><path class="point" transform="translate(418.45,78.88)" d="M3,0A3,3 0 1,1 0,-3A3,3 0 0,1 3,0Z" style="opacity: 1; stroke-width: 0px; fill: rgb(34, 114, 180); fill-opacity: 1;"/><path class="point" transform="translate(439.46,74.84)" d="M3,0A3,3 0 1,1 0,-3A3,3 0 0,1 3,0Z" style="opacity: 1; stroke-width: 0px; fill: rgb(34, 114, 180); fill-opacity: 1;"/><path class="point" transform="translate(460.47,70.41)" d="M3,0A3,3 0 1,1 0,-3A3,3 0 0,1 3,0Z" style="opacity: 1; stroke-width: 0px; fill: rgb(34, 114, 180); fill-opacity: 1;"/><path class="point" transform="translate(481.47,66.37)" d="M3,0A3,3 0 1,1 0,-3A3,3 0 0,1 3,0Z" style="opacity: 1; stroke-width: 0px; fill: rgb(34, 114, 180); fill-opacity: 1;"/><path class="point" transform="translate(502.48,62.95)" d="M3,0A3,3 0 1,1 0,-3A3,3 0 0,1 3,0Z" style="opacity: 1; stroke-width: 0px; fill: rgb(34, 114, 180); fill-opacity: 1;"/><path class="point" transform="translate(523.48,60.17)" d="M3,0A3,3 0 1,1 0,-3A3,3 0 0,1 3,0Z" style="opacity: 1; stroke-width: 0px; fill: rgb(34, 114, 180); fill-opacity: 1;"/><path class="point" transform="translate(544.49,58.15)" d="M3,0A3,3 0 1,1 0,-3A3,3 0 0,1 3,0Z" style="opacity: 1; stroke-width: 0px; fill: rgb(34, 114, 180); fill-opacity: 1;"/><path class="point" transform="translate(565.5,56)" d="M3,0A3,3 0 1,1 0,-3A3,3 0 0,1 3,0Z" style="opacity: 1; stroke-width: 0px; fill: rgb(34, 114, 180); fill-opacity: 1;"/><path class="point" transform="translate(586.5,53.09)" d="M3,0A3,3 0 1,1 0,-3A3,3 0 0,1 3,0Z" style="opacity: 1; stroke-width: 0px; fill: rgb(34, 114, 180); fill-opacity: 1;"/><path class="point" transform="translate(607.51,50.18)" d="M3,0A3,3 0 1,1 0,-3A3,3 0 0,1 3,0Z" style="opacity: 1; stroke-width: 0px; fill: rgb(34, 114, 180); fill-opacity: 1;"/><path class="point" transform="translate(628.52,46.77)" d="M3,0A3,3 0 1,1 0,-3A3,3 0 0,1 3,0Z" style="opacity: 1; stroke-width: 0px; fill: rgb(34, 114, 180); fill-opacity: 1;"/><path class="point" transform="translate(649.52,44.49)" d="M3,0A3,3 0 1,1 0,-3A3,3 0 0,1 3,0Z" style="opacity: 1; stroke-width: 0px; fill: rgb(34, 114, 180); fill-opacity: 1;"/><path class="point" transform="translate(670.53,42.98)" d="M3,0A3,3 0 1,1 0,-3A3,3 0 0,1 3,0Z" style="opacity: 1; stroke-width: 0px; fill: rgb(34, 114, 180); fill-opacity: 1;"/><path class="point" transform="translate(691.53,41.33)" d="M3,0A3,3 0 1,1 0,-3A3,3 0 0,1 3,0Z" style="opacity: 1; stroke-width: 0px; fill: rgb(34, 114, 180); fill-opacity: 1;"/><path class="point" transform="translate(712.54,39.56)" d="M3,0A3,3 0 1,1 0,-3A3,3 0 0,1 3,0Z" style="opacity: 1; stroke-width: 0px; fill: rgb(34, 114, 180); fill-opacity: 1;"/><path class="point" transform="translate(733.55,36.91)" d="M3,0A3,3 0 1,1 0,-3A3,3 0 0,1 3,0Z" style="opacity: 1; stroke-width: 0px; fill: rgb(34, 114, 180); fill-opacity: 1;"/><path class="point" transform="translate(754.55,36.15)" d="M3,0A3,3 0 1,1 0,-3A3,3 0 0,1 3,0Z" style="opacity: 1; stroke-width: 0px; fill: rgb(34, 114, 180); fill-opacity: 1;"/><path class="point" transform="translate(775.56,35.26)" d="M3,0A3,3 0 1,1 0,-3A3,3 0 0,1 3,0Z" style="opacity: 1; stroke-width: 0px; fill: rgb(34, 114, 180); fill-opacity: 1;"/><path class="point" transform="translate(796.56,34.25)" d="M3,0A3,3 0 1,1 0,-3A3,3 0 0,1 3,0Z" style="opacity: 1; stroke-width: 0px; fill: rgb(34, 114, 180); fill-opacity: 1;"/><path class="point" transform="translate(817.57,33.49)" d="M3,0A3,3 0 1,1 0,-3A3,3 0 0,1 3,0Z" style="opacity: 1; stroke-width: 0px; fill: rgb(34, 114, 180); fill-opacity: 1;"/><path class="point" transform="translate(838.58,32.73)" d="M3,0A3,3 0 1,1 0,-3A3,3 0 0,1 3,0Z" style="opacity: 1; stroke-width: 0px; fill: rgb(34, 114, 180); fill-opacity: 1;"/><path class="point" transform="translate(859.58,31.98)" d="M3,0A3,3 0 1,1 0,-3A3,3 0 0,1 3,0Z" style="opacity: 1; stroke-width: 0px; fill: rgb(34, 114, 180); fill-opacity: 1;"/><path class="point" transform="translate(880.59,31.85)" d="M3,0A3,3 0 1,1 0,-3A3,3 0 0,1 3,0Z" style="opacity: 1; stroke-width: 0px; fill: rgb(34, 114, 180); fill-opacity: 1;"/><path class="point" transform="translate(901.59,31.72)" d="M3,0A3,3 0 1,1 0,-3A3,3 0 0,1 3,0Z" style="opacity: 1; stroke-width: 0px; fill: rgb(34, 114, 180); fill-opacity: 1;"/><path class="point" transform="translate(922.6,31.6)" d="M3,0A3,3 0 1,1 0,-3A3,3 0 0,1 3,0Z" style="opacity: 1; stroke-width: 0px; fill: rgb(34, 114, 180); fill-opacity: 1;"/><path class="point" transform="translate(943.61,31.09)" d="M3,0A3,3 0 1,1 0,-3A3,3 0 0,1 3,0Z" style="opacity: 1; stroke-width: 0px; fill: rgb(34, 114, 180); fill-opacity: 1;"/><path class="point" transform="translate(964.61,30.59)" d="M3,0A3,3 0 1,1 0,-3A3,3 0 0,1 3,0Z" style="opacity: 1; stroke-width: 0px; fill: rgb(34, 114, 180); fill-opacity: 1;"/><path class="point" transform="translate(985.62,30.46)" d="M3,0A3,3 0 1,1 0,-3A3,3 0 0,1 3,0Z" style="opacity: 1; stroke-width: 0px; fill: rgb(34, 114, 180); fill-opacity: 1;"/><path class="point" transform="translate(1006.63,30.33)" d="M3,0A3,3 0 1,1 0,-3A3,3 0 0,1 3,0Z" style="opacity: 1; stroke-width: 0px; fill: rgb(34, 114, 180); fill-opacity: 1;"/><path class="point" transform="translate(1027.63,30.33)" d="M3,0A3,3 0 1,1 0,-3A3,3 0 0,1 3,0Z" style="opacity: 1; stroke-width: 0px; fill: rgb(34, 114, 180); fill-opacity: 1;"/><path class="point" transform="translate(1048.64,29.95)" d="M3,0A3,3 0 1,1 0,-3A3,3 0 0,1 3,0Z" style="opacity: 1; stroke-width: 0px; fill: rgb(34, 114, 180); fill-opacity: 1;"/><path class="point" transform="translate(1069.64,29.83)" d="M3,0A3,3 0 1,1 0,-3A3,3 0 0,1 3,0Z" style="opacity: 1; stroke-width: 0px; fill: rgb(34, 114, 180); fill-opacity: 1;"/><path class="point" transform="translate(1090.65,29.7)" d="M3,0A3,3 0 1,1 0,-3A3,3 0 0,1 3,0Z" style="opacity: 1; stroke-width: 0px; fill: rgb(34, 114, 180); fill-opacity: 1;"/></g><g class="text"/></g><g class="trace scatter trace66d905" style="stroke-miterlimit: 2; opacity: 1;"><g class="fills"/><g class="errorbars"/><g class="lines"><path class="js-line" d="M61.35,489.3L82.36,362.1L103.36,295.72L124.37,250.46L145.37,218.98L166.38,195.21L187.39,174.09L229.4,147.79L250.41,137.42L271.41,126.05L292.42,117.83L334.43,101.14L355.44,95.32L376.44,88.62L397.45,83.31L460.47,70.41L481.47,66.37L523.48,60.17L544.49,58.15L565.5,56L586.5,53.09L649.52,44.49L670.53,42.98L712.54,39.56L733.55,36.91L880.59,31.85L901.59,31.72L943.61,31.09L964.61,30.59L1090.65,29.7" style="vector-effect: none; fill: none; stroke: rgb(34, 114, 180); stroke-opacity: 0.14902; stroke-width: 2px; opacity: 1;"/></g><g class="points"/><g class="text"/></g></g></g></g><path class="xlines-above crisp" d="M0,0" style="fill: none;"/><path class="ylines-above crisp" d="M0,0" style="fill: none;"/><g class="overlines-above"/><g class="xaxislayer-above"><g class="xtick"><text text-anchor="middle" x="0" y="531" transform="translate(88.34,0)" style="font-family: 'Open Sans', verdana, arial, sans-serif; font-size: 11px; fill: rgb(146, 164, 179); fill-opacity: 1; white-space: pre; opacity: 1;">0</text></g><g class="xtick"><text text-anchor="middle" x="0" y="531" style="font-family: 'Open Sans', verdana, arial, sans-serif; font-size: 11px; fill: rgb(146, 164, 179); fill-opacity: 1; white-space: pre; opacity: 1;" transform="translate(298.40999999999997,0)">10</text></g><g class="xtick"><text text-anchor="middle" x="0" y="531" style="font-family: 'Open Sans', verdana, arial, sans-serif; font-size: 11px; fill: rgb(146, 164, 179); fill-opacity: 1; white-space: pre; opacity: 1;" transform="translate(508.47,0)">20</text></g><g class="xtick"><text text-anchor="middle" x="0" y="531" style="font-family: 'Open Sans', verdana, arial, sans-serif; font-size: 11px; fill: rgb(146, 164, 179); fill-opacity: 1; white-space: pre; opacity: 1;" transform="translate(718.53,0)">30</text></g><g class="xtick"><text text-anchor="middle" x="0" y="531" style="font-family: 'Open Sans', verdana, arial, sans-serif; font-size: 11px; fill: rgb(146, 164, 179); fill-opacity: 1; white-space: pre; opacity: 1;" transform="translate(928.59,0)">40</text></g><g class="xtick"><text text-anchor="middle" x="0" y="531" style="font-family: 'Open Sans', verdana, arial, sans-serif; font-size: 11px; fill: rgb(146, 164, 179); fill-opacity: 1; white-space: pre; opacity: 1;" transform="translate(1138.65,0)">50</text></g></g><g class="yaxislayer-above"><g class="ytick"><text text-anchor="end" x="47" y="3.8499999999999996" transform="translate(0,483.86)" style="font-family: 'Open Sans', verdana, arial, sans-serif; font-size: 11px; fill: rgb(146, 164, 179); fill-opacity: 1; white-space: pre; opacity: 1;">0.94</text></g><g class="ytick"><text text-anchor="end" x="47" y="3.8499999999999996" style="font-family: 'Open Sans', verdana, arial, sans-serif; font-size: 11px; fill: rgb(146, 164, 179); fill-opacity: 1; white-space: pre; opacity: 1;" transform="translate(0,408)">0.95</text></g><g class="ytick"><text text-anchor="end" x="47" y="3.8499999999999996" style="font-family: 'Open Sans', verdana, arial, sans-serif; font-size: 11px; fill: rgb(146, 164, 179); fill-opacity: 1; white-space: pre; opacity: 1;" transform="translate(0,332.14)">0.96</text></g><g class="ytick"><text text-anchor="end" x="47" y="3.8499999999999996" style="font-family: 'Open Sans', verdana, arial, sans-serif; font-size: 11px; fill: rgb(146, 164, 179); fill-opacity: 1; white-space: pre; opacity: 1;" transform="translate(0,256.28)">0.97</text></g><g class="ytick"><text text-anchor="end" x="47" y="3.8499999999999996" style="font-family: 'Open Sans', verdana, arial, sans-serif; font-size: 11px; fill: rgb(146, 164, 179); fill-opacity: 1; white-space: pre; opacity: 1;" transform="translate(0,180.41)">0.98</text></g><g class="ytick"><text text-anchor="end" x="47" y="3.8499999999999996" style="font-family: 'Open Sans', verdana, arial, sans-serif; font-size: 11px; fill: rgb(146, 164, 179); fill-opacity: 1; white-space: pre; opacity: 1;" transform="translate(0,104.55)">0.99</text></g><g class="ytick"><text text-anchor="end" x="47" y="3.8499999999999996" style="font-family: 'Open Sans', verdana, arial, sans-serif; font-size: 11px; fill: rgb(146, 164, 179); fill-opacity: 1; white-space: pre; opacity: 1;" transform="translate(0,28.69)">1</text></g></g><g class="overaxes-above"/></g></g><g class="polarlayer"/><g class="smithlayer"/><g class="ternarylayer"/><g class="geolayer"/><g class="funnelarealayer"/><g class="pielayer"/><g class="iciclelayer"/><g class="treemaplayer"/><g class="sunburstlayer"/><g class="glimages"/><defs id="topdefs-d4edaa"><g class="clips"/><clipPath id="legendd4edaa"><rect width="313" height="29" x="0" y="0"/></clipPath></defs><g class="layer-above"><g class="imagelayer"/><g class="shapelayer"/></g><g class="infolayer"><g class="legend" pointer-events="all" transform="translate(48,570.9000000000001)"><rect class="bg" shape-rendering="crispEdges" style="stroke: rgb(68, 68, 68); stroke-opacity: 1; fill: rgb(255, 255, 255); fill-opacity: 1; stroke-width: 0px;" width="313" height="29" x="0" y="0"/><g class="scrollbox" transform="" clip-path="url(#legendd4edaa)"><g class="groups"><g class="traces" transform="translate(0,14.5)" style="opacity: 1;"><text class="legendtext" text-anchor="start" x="40" y="4.680000000000001" style="font-family: 'Open Sans', verdana, arial, sans-serif; font-size: 12px; fill: rgb(68, 68, 68); fill-opacity: 1; white-space: pre;">h128-b64-lr0.1-s0</text><g class="layers" style="opacity: 1;"><g class="legendfill"/><g class="legendlines"><path class="js-line" d="M5,0h30" style="fill: none; stroke: rgb(34, 114, 180); stroke-opacity: 1; stroke-width: 2px;"/></g><g class="legendsymbols"><g class="legendpoints"><path class="scatterpts" transform="translate(20,0)" d="M3,0A3,3 0 1,1 0,-3A3,3 0 0,1 3,0Z" style="opacity: 1; stroke-width: 0px; fill: rgb(34, 114, 180); fill-opacity: 1;"/></g></g></g><rect class="legendtoggle" x="0" y="-9.5" width="153.984375" height="19" style="fill: rgb(0, 0, 0); fill-opacity: 0;"/></g><g class="traces" transform="translate(156.484375,14.5)" style="opacity: 1;"><text class="legendtext" text-anchor="start" x="40" y="4.680000000000001" style="font-family: 'Open Sans', verdana, arial, sans-serif; font-size: 12px; fill: rgb(68, 68, 68); fill-opacity: 1; white-space: pre;">h128-b64-lr0.1-s0</text><g class="layers" style="opacity: 1;"><g class="legendfill"/><g class="legendlines"><path class="js-line" d="M5,0h30" style="fill: none; stroke: rgb(34, 114, 180); stroke-opacity: 0.14902; stroke-width: 2px;"/></g><g class="legendsymbols"><g class="legendpoints"/></g></g><rect class="legendtoggle" x="0" y="-9.5" width="153.984375" height="19" style="fill: rgb(0, 0, 0); fill-opacity: 0;"/></g></g></g><rect class="scrollbar" rx="20" ry="3" width="0" height="0" style="fill: rgb(128, 139, 164); fill-opacity: 1;" x="0" y="0"/></g><g class="g-gtitle"/><g class="g-xtitle"><text class="xtitle" x="624" y="571" text-anchor="middle" style="opacity: 1; font-family: 'Open Sans', verdana, arial, sans-serif; font-size: 14px; fill: rgb(68, 68, 68); fill-opacity: 1; white-space: pre;">Step</text></g><g class="g-ytitle"/></g></svg>